<?xml version="1.0" encoding="UTF-8"?>
<svg version="1.1" xmlns="http://www.w3.org/2000/svg" width="376" height="376">
<path d="M0 0 C124.08 0 248.16 0 376 0 C376 124.08 376 248.16 376 376 C251.92 376 127.84 376 0 376 C0 251.92 0 127.84 0 0 Z " fill="#F24624" transform="translate(0,0)"/>
<path d="M0 0 C124.08 0 248.16 0 376 0 C376 124.08 376 248.16 376 376 C251.92 376 127.84 376 0 376 C0 251.92 0 127.84 0 0 Z M147 30 C145.9174292 30.29632324 145.9174292 30.29632324 144.81298828 30.59863281 C118.52286911 38.0439637 95.72136157 52.34635546 76 71 C75.12859375 71.80695313 74.2571875 72.61390625 73.359375 73.4453125 C53.64467303 92.31509867 40.0479873 116.8301071 31.625 142.625 C31.39852783 143.30272461 31.17205566 143.98044922 30.9387207 144.67871094 C26.48975799 159.13073411 25.42029979 174.03305065 25.5 189.0625 C25.50076538 189.90496277 25.50153076 190.74742554 25.50231934 191.61541748 C25.55000256 206.25105805 27.1242662 219.83494113 31 234 C31.31066406 235.23234375 31.62132812 236.4646875 31.94140625 237.734375 C39.33881366 264.40484836 54.16085151 287.06779512 73 307 C73.81726563 307.88171875 74.63453125 308.7634375 75.4765625 309.671875 C93.94189035 328.95425276 118.41713653 342.14369954 143.625 350.375 C144.30272461 350.60147217 144.98044922 350.82794434 145.67871094 351.0612793 C160.12873747 355.50962735 175.0345145 356.58464427 190.0625 356.5 C191.33018219 356.49735641 191.33018219 356.49735641 192.62347412 356.49465942 C207.20458887 356.42726383 220.92749184 355.02857097 235 351 C236.39387939 350.60651367 236.39387939 350.60651367 237.81591797 350.20507812 C249.85589717 346.70939748 261.05287858 342.09029995 272 336 C272.62036133 335.66274902 273.24072266 335.32549805 273.87988281 334.97802734 C299.02330912 321.20340456 319.24831607 300.4105246 334 276 C334.56203125 275.11441406 335.1240625 274.22882813 335.703125 273.31640625 C344.76324135 258.60392002 350.1409197 242.74490781 354 226 C354.23460937 225.05898437 354.46921875 224.11796875 354.7109375 223.1484375 C356.46579572 215.54405189 356.76294579 207.77288288 357 200 C357.03399902 198.90445801 357.06799805 197.80891602 357.10302734 196.68017578 C358.28597183 151.854386 344.34635728 109.9390802 313.20703125 76.9296875 C297.11674923 60.26746219 278.93416911 47.78268751 258 38 C256.50919922 37.29037109 256.50919922 37.29037109 254.98828125 36.56640625 C246.00883454 32.54631923 236.53182153 30.29939211 227 28 C225.57494141 27.64228516 225.57494141 27.64228516 224.12109375 27.27734375 C216.51870726 25.540758 208.76609393 25.25051916 201 25 C199.92041016 24.96068359 198.84082031 24.92136719 197.72851562 24.88085938 C180.14278195 24.31604811 163.98995855 25.3010023 147 30 Z " fill="#FEFEFE" transform="translate(0,0)"/>
<path d="M0 0 C1.28722458 -0.00563965 2.57444916 -0.0112793 3.90068054 -0.01708984 C5.33535822 -0.01320087 6.77003535 -0.00910451 8.20471191 -0.00482178 C9.7091336 -0.00753054 11.21355397 -0.01109083 12.7179718 -0.01544189 C16.81086524 -0.02458183 20.90365817 -0.02101507 24.99655342 -0.01468372 C29.27309573 -0.00963201 33.54962924 -0.01431286 37.82617188 -0.01745605 C45.00884552 -0.02109812 52.19147809 -0.0162903 59.37414551 -0.0067749 C67.68683779 0.00411012 75.99943197 0.00058471 84.31212187 -0.01042771 C91.43995617 -0.01949374 98.56776088 -0.02078923 105.69559908 -0.01555037 C109.95680634 -0.0124269 114.21796743 -0.01203164 118.47917175 -0.01862335 C122.48463741 -0.02438627 126.48997618 -0.02041938 130.49542809 -0.00883484 C131.96846493 -0.00618258 133.44151239 -0.00696294 134.91454506 -0.01136017 C136.91934461 -0.01679457 138.9241674 -0.00878347 140.92895508 0 C142.05278847 0.00075405 143.17662186 0.0015081 144.3345108 0.002285 C146.96447754 0.25396729 146.96447754 0.25396729 148.96447754 2.25396729 C149.20739746 4.3928833 149.20739746 4.3928833 149.19494629 7.00787354 C149.1930127 7.94437744 149.1910791 8.88088135 149.18908691 9.84576416 C149.17684082 10.82609619 149.16459473 11.80642822 149.15197754 12.81646729 C149.15101074 14.29276611 149.15101074 14.29276611 149.15002441 15.79888916 C149.10465286 23.11379196 149.10465286 23.11379196 147.96447754 24.25396729 C145.9648939 24.29477511 143.964025 24.29651085 141.96447754 24.25396729 C141.95029785 25.00033447 141.93611816 25.74670166 141.92150879 26.51568604 C141.48883556 36.77121092 139.77871959 46.69502534 137.97570801 56.79058838 C136.47775159 65.19905996 135.12053686 73.61309474 133.90197754 82.06646729 C132.57671932 91.24483841 131.11806154 100.38676229 129.53674316 109.52423096 C128.4668271 115.85057801 127.5494234 122.18718443 126.70666504 128.54693604 C126.59843918 129.35688522 126.49021332 130.16683441 126.37870789 131.00132751 C125.8391071 135.04799508 125.31155742 139.09566453 124.8026123 143.14630127 C124.60567459 144.64318135 124.40834511 146.14000995 124.21057129 147.63677979 C124.12939056 148.31705734 124.04820984 148.9973349 123.96456909 149.69822693 C123.21906732 155.206762 121.79281826 159.36040436 117.89720154 163.39498901 C114.04332869 165.83785984 110.72628998 165.8159269 106.30627441 165.77154541 C105.44550797 165.77855469 104.58474152 165.78556396 103.69789124 165.79278564 C100.85933953 165.81035663 98.02178896 165.79874617 95.18322754 165.78521729 C93.20694793 165.78791246 91.23066961 165.79179509 89.25439453 165.79681396 C85.11514647 165.8027078 80.97624399 165.79414967 76.83703613 165.77545166 C71.53392784 165.75266228 66.23162931 165.76578597 60.92855072 165.78974152 C56.84842844 165.80420253 52.76849783 165.79959209 48.68836975 165.78923035 C46.73315841 165.78656391 44.7779296 165.78982991 42.82273865 165.79914856 C40.08891778 165.80931908 37.35640427 165.7938063 34.62268066 165.77154541 C33.81629654 165.77964233 33.00991241 165.78773926 32.17909241 165.79608154 C27.13922105 165.72013544 24.50427104 164.86721899 20.96447754 161.25396729 C18.51447872 157.73160477 18.17162482 153.5363768 17.52697754 149.37896729 C17.39992432 148.5908667 17.27287109 147.80276611 17.14196777 146.99078369 C16.02693075 139.9488062 15.09221172 132.88410929 14.15344238 125.81695557 C13.14118929 118.30415978 11.93103855 110.83622378 10.66052246 103.36334229 C8.98289518 93.46290088 7.40590568 83.54748143 5.83947754 73.62896729 C5.64725113 72.41612061 5.64725113 72.41612061 5.45114136 71.17877197 C4.02792463 62.19585085 2.64507825 53.2126303 1.4107666 44.20147705 C0.98331652 41.37838907 0.44489456 38.60622011 -0.16052246 35.81646729 C-0.9971858 31.86192575 -1.21093031 28.28834783 -1.03552246 24.25396729 C-2.00489746 24.27459229 -2.97427246 24.29521729 -3.97302246 24.31646729 C-7.03552246 24.25396729 -7.03552246 24.25396729 -8.03552246 23.25396729 C-8.2865117 19.78187922 -8.22074342 16.29656109 -8.22302246 12.81646729 C-8.23526855 11.83613525 -8.24751465 10.85580322 -8.26013184 9.84576416 C-8.26303223 8.4410083 -8.26303223 8.4410083 -8.26599121 7.00787354 C-8.2701001 6.14492676 -8.27420898 5.28197998 -8.27844238 4.3928833 C-7.71084383 -0.60483618 -4.13565901 0.00277488 0 0 Z " fill="#DFE6EE" transform="translate(121.0355224609375,118.74603271484375)"/>
<path d="M0 0 C1.28722458 -0.00563965 2.57444916 -0.0112793 3.90068054 -0.01708984 C5.33535822 -0.01320087 6.77003535 -0.00910451 8.20471191 -0.00482178 C9.7091336 -0.00753054 11.21355397 -0.01109083 12.7179718 -0.01544189 C16.81086524 -0.02458183 20.90365817 -0.02101507 24.99655342 -0.01468372 C29.27309573 -0.00963201 33.54962924 -0.01431286 37.82617188 -0.01745605 C45.00884552 -0.02109812 52.19147809 -0.0162903 59.37414551 -0.0067749 C67.68683779 0.00411012 75.99943197 0.00058471 84.31212187 -0.01042771 C91.43995617 -0.01949374 98.56776088 -0.02078923 105.69559908 -0.01555037 C109.95680634 -0.0124269 114.21796743 -0.01203164 118.47917175 -0.01862335 C122.48463741 -0.02438627 126.48997618 -0.02041938 130.49542809 -0.00883484 C131.96846493 -0.00618258 133.44151239 -0.00696294 134.91454506 -0.01136017 C136.91934461 -0.01679457 138.9241674 -0.00878347 140.92895508 0 C142.05278847 0.00075405 143.17662186 0.0015081 144.3345108 0.002285 C146.96447754 0.25396729 146.96447754 0.25396729 148.96447754 2.25396729 C149.20739746 4.3928833 149.20739746 4.3928833 149.19494629 7.00787354 C149.1930127 7.94437744 149.1910791 8.88088135 149.18908691 9.84576416 C149.17684082 10.82609619 149.16459473 11.80642822 149.15197754 12.81646729 C149.15101074 14.29276611 149.15101074 14.29276611 149.15002441 15.79888916 C149.10465286 23.11379196 149.10465286 23.11379196 147.96447754 24.25396729 C145.96716921 24.35288456 143.96630891 24.38029003 141.96655273 24.38095093 C140.66242935 24.38377075 139.35830597 24.38659058 138.0146637 24.38949585 C136.55587755 24.38755125 135.09709154 24.38550306 133.63830566 24.38336182 C132.11270608 24.38471579 130.58710682 24.38649571 129.06150818 24.38867188 C124.90666598 24.39324663 120.7518485 24.39145648 116.59700584 24.38829279 C112.2585989 24.3857694 107.92019413 24.38810667 103.58178711 24.38967896 C96.29479592 24.39150071 89.00781485 24.38909418 81.7208252 24.38433838 C73.28375897 24.37889575 64.84671691 24.3806584 56.40965128 24.38616478 C49.17909999 24.39069574 41.948556 24.39134655 34.71800375 24.38872612 C30.39366859 24.38716324 26.06934481 24.38696986 21.74501038 24.3902626 C17.68050055 24.39314106 13.61602201 24.39116611 9.55151558 24.38536835 C8.05548212 24.38404061 6.55944605 24.3844351 5.06341362 24.38663101 C3.02974412 24.38934195 0.9960689 24.3853482 -1.03759766 24.38095093 C-2.17840034 24.3805739 -3.31920303 24.38019688 -4.4945755 24.37980843 C-7.03552246 24.25396729 -7.03552246 24.25396729 -8.03552246 23.25396729 C-8.2865117 19.78187922 -8.22074342 16.29656109 -8.22302246 12.81646729 C-8.23526855 11.83613525 -8.24751465 10.85580322 -8.26013184 9.84576416 C-8.26303223 8.4410083 -8.26303223 8.4410083 -8.26599121 7.00787354 C-8.2701001 6.14492676 -8.27420898 5.28197998 -8.27844238 4.3928833 C-7.71084383 -0.60483618 -4.13565901 0.00277488 0 0 Z " fill="#FEFCFB" transform="translate(121.0355224609375,118.74603271484375)"/>
<path d="M0 0 C1.68734001 -0.01925285 1.68734001 -0.01925285 3.4087677 -0.03889465 C5.23996407 -0.04997505 5.23996407 -0.04997505 7.1081543 -0.0612793 C8.35864059 -0.06935104 9.60912689 -0.07742279 10.89750671 -0.08573914 C13.54808263 -0.09959 16.19853374 -0.11060341 18.84912109 -0.11816406 C22.23878054 -0.12922017 25.62778197 -0.16361025 29.01720905 -0.20333576 C32.25579215 -0.2358211 35.4944331 -0.24028268 38.7331543 -0.2487793 C40.55524162 -0.27504143 40.55524162 -0.27504143 42.41413879 -0.30183411 C43.54848862 -0.29890854 44.68283844 -0.29598297 45.8515625 -0.29296875 C47.34475761 -0.30176811 47.34475761 -0.30176811 48.86811829 -0.31074524 C52.38289607 0.31224741 54.06092535 1.74164922 56.61987305 4.17700195 C59.3072923 9.55184045 57.61987305 16.16774983 57.61987305 22.17700195 C34.84987305 22.17700195 12.07987305 22.17700195 -11.38012695 22.17700195 C-11.38012695 6.17700195 -11.38012695 6.17700195 -7.38012695 1.17700195 C-4.79478691 -0.11566807 -2.89514167 0.02869907 0 0 Z " fill="#E0E5EC" transform="translate(168.380126953125,96.822998046875)"/>
<path d="M0 0 C4.36912322 6.55368483 1.86162464 15.4314512 0.7265625 22.8515625 C-0.54997229 31.47678446 -1.64118974 40.11797559 -2.65597725 48.77741623 C-2.90308404 50.88130288 -3.15295144 52.98484296 -3.40379333 55.08828735 C-3.52926119 56.1407109 -3.52926119 56.1407109 -3.65726376 57.21439552 C-3.82749902 58.64200959 -3.99775987 60.06962062 -4.168046 61.49722862 C-4.60161117 65.1414908 -5.02890769 68.78632388 -5.44506836 72.43261719 C-5.85549784 76.02479659 -6.28218789 79.61471525 -6.71985054 83.20367432 C-6.95956089 85.2058745 -7.1819968 87.21011881 -7.40403748 89.21435547 C-7.55421829 90.42752441 -7.70439911 91.64069336 -7.85913086 92.890625 C-7.98331894 93.95313477 -8.10750702 95.01564453 -8.23545837 96.11035156 C-9.15335402 99.57961424 -10.49118544 101.45649904 -13 104 C-16.16089392 104.51606431 -18.00119343 104.70765292 -20.66333008 102.8215332 C-25.64781359 96.02897951 -21.33135433 81.65591824 -20.14859009 73.60235596 C-19.55898877 69.58527202 -18.9983425 65.56415325 -18.4375 61.54296875 C-18.31933426 60.69911621 -18.20116852 59.85526367 -18.079422 58.98583984 C-17.1809762 52.4955316 -16.38220887 45.99647731 -15.625 39.48828125 C-15.45879402 38.06153831 -15.45879402 38.06153831 -15.28923035 36.60597229 C-14.85496612 32.860121 -14.42352795 29.1140099 -14.00283813 25.36660767 C-13.71101387 22.76728367 -13.41248881 20.16879522 -13.11328125 17.5703125 C-12.98850403 16.4225811 -12.98850403 16.4225811 -12.86120605 15.25166321 C-11.52254372 3.74004997 -11.52254372 3.74004997 -8.25 0 C-5.11450526 -1.39355322 -3.24126017 -0.98647049 0 0 Z " fill="#BCC8D7" transform="translate(235,162)"/>
<path d="M0 0 C2.75429719 1.77289977 3.01395967 3.06399681 3.72021484 6.30175781 C3.89700399 7.68392072 4.05955014 9.06794972 4.2109375 10.453125 C4.30413773 11.20911484 4.39733795 11.96510468 4.49336243 12.7440033 C4.79904556 15.24473177 5.08681281 17.7472003 5.375 20.25 C5.58561727 21.99406347 5.79763274 23.73795861 6.01098633 25.48168945 C6.45607703 29.12923921 6.89502815 32.77745084 7.32958984 36.42626953 C8.29675473 44.51237609 9.32879313 52.59013889 10.36529541 60.66760254 C10.68005295 63.12925813 10.99058329 65.59141579 11.30029297 68.05371094 C12.24929343 75.54364535 13.25894342 82.98988491 14.64379883 90.4152832 C15.24999731 94.81406546 15.59455473 97.94809548 13.375 101.875 C11 104 11 104 8 104.6875 C5 104 5 104 2.89208984 101.43505859 C0.83554857 97.70144108 0.14602717 94.51483798 -0.2734375 90.3515625 C-0.36257919 89.60195755 -0.45172089 88.8523526 -0.54356384 88.08003235 C-0.83565416 85.59649782 -1.10522534 83.11104906 -1.375 80.625 C-1.57667046 78.87423383 -1.7800769 77.12366687 -1.98510742 75.37329102 C-2.31152926 72.58194595 -2.6363249 69.79047926 -2.95506287 66.99824524 C-3.79687692 59.63313071 -4.71049305 52.27872626 -5.65234375 44.92578125 C-5.79077698 43.841297 -5.92921021 42.75681274 -6.07183838 41.63946533 C-6.62000238 37.34683806 -7.1686072 33.05427385 -7.72161865 28.76226807 C-8.10633596 25.76780558 -8.48541813 22.77267779 -8.86328125 19.77734375 C-8.97864731 18.89041336 -9.09401337 18.00348297 -9.21287537 17.0896759 C-10.79428602 4.44840393 -10.79428602 4.44840393 -8.9375 1.0625 C-5.88023824 -0.6140629 -3.4093712 -0.36528977 0 0 Z " fill="#BCC7D7" transform="translate(156,162)"/>
<path d="M0 0 C2.56076564 1.01082854 3.65302885 1.81922158 5.375 3.9375 C5.75531673 5.81035519 5.75531673 5.81035519 5.76268005 7.95384216 C5.77258469 8.76835846 5.78248932 9.58287476 5.79269409 10.42207336 C5.78594162 11.75700081 5.78594162 11.75700081 5.77905273 13.11889648 C5.78591599 14.05900574 5.79277924 14.99911499 5.79985046 15.9677124 C5.81818146 19.0814923 5.8142719 22.19477137 5.80859375 25.30859375 C5.8131526 27.46948919 5.81845728 29.63038317 5.82447815 31.79127502 C5.83342171 36.32323084 5.83097202 40.85501056 5.82104492 45.38696289 C5.80955525 51.19911186 5.82976075 57.0106533 5.85896206 62.82272243 C5.87729498 67.28623832 5.87703736 71.74960786 5.87132454 76.21315193 C5.87117096 78.3562003 5.87724536 80.49925837 5.88961601 82.64227104 C5.90446862 85.63747298 5.89389074 88.63154285 5.87670898 91.62670898 C5.89121094 92.95860008 5.89121094 92.95860008 5.90600586 94.31739807 C5.83385165 100.31428814 5.83385165 100.31428814 3.49989319 103.48426819 C1.375 104.9375 1.375 104.9375 -1.125 105.5 C-3.625 104.9375 -3.625 104.9375 -5.74790955 102.9846344 C-8.33154234 98.7905497 -8.19457891 95.45663504 -8.15844727 90.62084961 C-8.16706284 89.69020187 -8.17567841 88.75955414 -8.18455505 87.80070496 C-8.20722438 84.73013356 -8.20047532 81.6604739 -8.19140625 78.58984375 C-8.19664069 76.45422596 -8.2029165 74.31861048 -8.21018982 72.18299866 C-8.22059529 67.71002309 -8.21602921 63.23736564 -8.20141602 58.7644043 C-8.18421156 53.02839957 -8.20774376 47.29339495 -8.24290562 41.55750179 C-8.26484744 37.14886317 -8.26344618 32.74046516 -8.2551403 28.33178902 C-8.25431934 26.21664901 -8.26121027 24.10149159 -8.27591133 21.98640251 C-8.29330137 19.03189097 -8.27886162 16.07919383 -8.25610352 13.12475586 C-8.26779572 12.24932129 -8.27948792 11.37388672 -8.29153442 10.47192383 C-8.19872561 4.56019054 -8.19872561 4.56019054 -5.24961853 1.35939026 C-2.625 -0.0625 -2.625 -0.0625 0 0 Z " fill="#BBC7D6" transform="translate(192.625,161.0625)"/>
<path d="M0 0 C1.01775513 -0.00315216 2.03551025 -0.00630432 3.08410645 -0.009552 C4.19137085 -0.00752777 5.29863525 -0.00550354 6.43945312 -0.00341797 C7.56766479 -0.00437469 8.69587646 -0.00533142 9.85827637 -0.00631714 C12.24910538 -0.00699915 14.63993624 -0.00514344 17.03076172 -0.00097656 C20.70479464 0.00437137 24.37870529 -0.0009209 28.05273438 -0.00732422 C30.3691409 -0.00666344 32.68554734 -0.00538229 35.00195312 -0.00341797 C36.66284973 -0.00645432 36.66284973 -0.00645432 38.3572998 -0.009552 C39.37505493 -0.00639984 40.39281006 -0.00324768 41.44140625 0 C42.79256531 0.00119339 42.79256531 0.00119339 44.17102051 0.00241089 C46.22070312 0.12939453 46.22070312 0.12939453 47.22070312 1.12939453 C47.22070312 5.41939453 47.22070312 9.70939453 47.22070312 14.12939453 C29.73070312 14.12939453 12.24070312 14.12939453 -5.77929688 14.12939453 C-5.77929688 0.00510447 -5.77929688 0.00510447 0 0 Z " fill="#F24F2F" transform="translate(170.779296875,104.87060546875)"/>
<path d="M0 0 C0.99 0 1.98 0 3 0 C4.32229189 2.64458379 4.09677194 4.67761301 4.0625 7.625 C4.05347656 8.62789062 4.04445312 9.63078125 4.03515625 10.6640625 C4.02355469 11.43492187 4.01195312 12.20578125 4 13 C2.0625 13.5625 2.0625 13.5625 0 14 C-1 13 -1 13 -1.1328125 10.3125 C-1.13023437 9.219375 -1.12765625 8.12625 -1.125 7 C-1.12757813 5.906875 -1.13015625 4.81375 -1.1328125 3.6875 C-1 1 -1 1 0 0 Z " fill="#E1E8EF" transform="translate(174,124)"/>
<path d="M0 0 C0.99 0 1.98 0 3 0 C4.32229189 2.64458379 4.09677194 4.67761301 4.0625 7.625 C4.05347656 8.62789062 4.04445312 9.63078125 4.03515625 10.6640625 C4.02355469 11.43492187 4.01195312 12.20578125 4 13 C2.0625 13.5625 2.0625 13.5625 0 14 C-1 13 -1 13 -1.1328125 10.3125 C-1.13023437 9.219375 -1.12765625 8.12625 -1.125 7 C-1.12757813 5.906875 -1.13015625 4.81375 -1.1328125 3.6875 C-1 1 -1 1 0 0 Z " fill="#E2E8EF" transform="translate(158,124)"/>
<path d="M0 0 C0.99 0 1.98 0 3 0 C4.32229189 2.64458379 4.09677194 4.67761301 4.0625 7.625 C4.05347656 8.62789062 4.04445312 9.63078125 4.03515625 10.6640625 C4.02355469 11.43492187 4.01195312 12.20578125 4 13 C2.0625 13.5625 2.0625 13.5625 0 14 C-1 13 -1 13 -1.1328125 10.3125 C-1.13023437 9.219375 -1.12765625 8.12625 -1.125 7 C-1.12757813 5.906875 -1.13015625 4.81375 -1.1328125 3.6875 C-1 1 -1 1 0 0 Z " fill="#E2E9EF" transform="translate(142,124)"/>
<path d="M0 0 C0.99 0 1.98 0 3 0 C4.32229189 2.64458379 4.09677194 4.67761301 4.0625 7.625 C4.05347656 8.62789062 4.04445312 9.63078125 4.03515625 10.6640625 C4.02355469 11.43492187 4.01195312 12.20578125 4 13 C2.0625 13.5625 2.0625 13.5625 0 14 C-1 13 -1 13 -1.1328125 10.3125 C-1.13023438 9.219375 -1.12765625 8.12625 -1.125 7 C-1.12757812 5.906875 -1.13015625 4.81375 -1.1328125 3.6875 C-1 1 -1 1 0 0 Z " fill="#E2E9EF" transform="translate(126,124)"/>
<path d="M0 0 C1.32 0 2.64 0 4 0 C4 3.96 4 7.92 4 12 C2.68 12.33 1.36 12.66 0 13 C-1 12 -1 12 -1.1328125 9.53125 C-1.13023437 8.5309375 -1.12765625 7.530625 -1.125 6.5 C-1.12757813 5.4996875 -1.13015625 4.499375 -1.1328125 3.46875 C-1 1 -1 1 0 0 Z " fill="#E1E8EF" transform="translate(254,125)"/>
<path d="M0 0 C1.32 0 2.64 0 4 0 C4 3.96 4 7.92 4 12 C2.68 12.33 1.36 12.66 0 13 C-1 12 -1 12 -1.1328125 9.53125 C-1.13023437 8.5309375 -1.12765625 7.530625 -1.125 6.5 C-1.12757813 5.4996875 -1.13015625 4.499375 -1.1328125 3.46875 C-1 1 -1 1 0 0 Z " fill="#E1E8EF" transform="translate(238,125)"/>
<path d="M0 0 C1.32 0 2.64 0 4 0 C4 3.96 4 7.92 4 12 C2.68 12.33 1.36 12.66 0 13 C-1 12 -1 12 -1.1328125 9.53125 C-1.13023437 8.5309375 -1.12765625 7.530625 -1.125 6.5 C-1.12757813 5.4996875 -1.13015625 4.499375 -1.1328125 3.46875 C-1 1 -1 1 0 0 Z " fill="#E1E8EF" transform="translate(222,125)"/>
<path d="M0 0 C1.98 0.495 1.98 0.495 4 1 C4 4.63 4 8.26 4 12 C2.68 12.33 1.36 12.66 0 13 C-1 12 -1 12 -1.1328125 9.53125 C-1.13023437 8.5309375 -1.12765625 7.530625 -1.125 6.5 C-1.12757813 5.4996875 -1.13015625 4.499375 -1.1328125 3.46875 C-1 1 -1 1 0 0 Z " fill="#E0E7EF" transform="translate(206,125)"/>
<path d="M0 0 C1.98 0.495 1.98 0.495 4 1 C4 4.63 4 8.26 4 12 C2.68 12.33 1.36 12.66 0 13 C-1 12 -1 12 -1.1328125 9.53125 C-1.13023437 8.5309375 -1.12765625 7.530625 -1.125 6.5 C-1.12757813 5.4996875 -1.13015625 4.499375 -1.1328125 3.46875 C-1 1 -1 1 0 0 Z " fill="#E0E7EE" transform="translate(190,125)"/>
</svg>
